<svg width="13" height="13" viewBox="0 0 13 13" fill="none" xmlns="http://www.w3.org/2000/svg">
<g clip-path="url(#clip0)">
<path d="M10.4911 9.3084L12.5506 11.3679C12.8996 11.7169 12.8996 12.2828 12.5506 12.6318C12.2016 12.9809 11.6357 12.9809 11.2866 12.6318L9.22714 10.5723C6.97069 12.2214 3.78742 12.0269 1.74953 9.98903C-0.503304 7.7362 -0.503304 4.08363 1.74953 1.83079C4.00237 -0.422046 7.65494 -0.422047 9.90778 1.83079C11.9457 3.86868 12.1401 7.05194 10.4911 9.3084ZM8.64383 8.72508C10.1986 7.1703 10.1986 4.64952 8.64383 3.09474C7.08905 1.53997 4.56826 1.53997 3.01349 3.09474C1.45871 4.64952 1.45871 7.17031 3.01349 8.72508C4.56826 10.2799 7.08905 10.2799 8.64383 8.72508Z" fill="#B2B9C4"/>
</g>
<defs>
<clipPath id="clip0">
<rect width="12.8375" height="13" fill="white"/>
</clipPath>
</defs>
</svg>
